<?xml version="1.0" encoding="UTF-8"?>
<svg width="16" height="16" viewBox="0 0 16 16" fill="none" xmlns="http://www.w3.org/2000/svg">
  <!-- Git branch icon with switch symbol -->
  <path d="M3 2C3.55228 2 4 2.44772 4 3C4 3.55228 3.55228 4 3 4C2.44772 4 2 3.55228 2 3C2 2.44772 2.44772 2 3 2Z" fill="currentColor"/>
  <path d="M13 12C13.5523 12 14 12.4477 14 13C14 13.5523 13.5523 14 13 14C12.4477 14 12 13.5523 12 13C12 12.4477 12.4477 12 13 12Z" fill="currentColor"/>
  <path d="M3 4V12" stroke="currentColor" stroke-width="1"/>
  <path d="M3 7H9C10.1046 7 11 6.10457 11 5V3" stroke="currentColor" stroke-width="1" fill="none"/>
  <path d="M11 3V12" stroke="currentColor" stroke-width="1"/>
  <!-- Switch arrows -->
  <path d="M6 9L8 7L6 5" stroke="currentColor" stroke-width="1" fill="none"/>
</svg>